,
  Hottest scene tracker on the net !!!   http://www.scenetime.com
 
         Please seed back after your download is completed

           Credit goes  to all seeders and  http://www.scenetime.com
 



...................................NFO:.................................................
                                                     
                                                   
                                                         
                                                          
                                                           
                                                          
                                                          
                                                          
                                                           
                                                         
                                                          
                                                        
                                                      
                                     
                                                 
                                                   
                                             
                                              
                                                     
                                                      
                                                      
                                                      
                                                    
                                                     
                                                   
                                                     
                                                     
                                                      
                                                     
                                                      
                                                    
                 ARTiCHOKE                        
                                                
                      
                                                        
                                                      
                                                      
                                               
                                          
                                                   
                                            
                                                    
                                                       
                                                        
                                                      
                                                
                                                        
                                                 
                                              
                                                  
                                                
                                                  
                                        

      
                                
      SPRiNTER proudly presents...     
                                
      
 
 ESPN.30.for.30.Jordan.Rides.The.Bus.2010.DVDRip.XviD-SPRiNTER  http://www.imdb.com/title/tt1509848/
 Subtitles: N/A

 Date: 2011.11
 Genre: Documentary


      
                 
      Release notes     
                 
      

 Enjoy!


      
           
     Greetings    
           
      


NTX aAF FiCO HNR CiNEFiLE AEN HUMANiSM


      
           
      Details     
           
      


Format                           : AVI
Format/Info                      : Audio Video Interleave
File size                        : 351 MiB
Duration                         : 51mn 18s
Overall bit rate                 : 955 Kbps
Writing application              : VirtualDubMod 1.5.10.2 (build 2540/release)
Writing library                  : VirtualDubMod build 2540/release

Video
ID                               : 0
Format                           : MPEG-4 Visual
Format profile                   : Advanced Simple@L5
Format settings, BVOP            : Yes
Format settings, QPel            : No
Format settings, GMC             : No warppoints
Format settings, Matrix          : Default (H.263)
Codec ID                         : XVID
Codec ID/Hint                    : XviD
Duration                         : 51mn 18s
Bit rate                         : 829 Kbps
Width                            : 576 pixels
Height                           : 320 pixels
Display aspect ratio             : 16:9
Frame rate                       : 23.976 fps
Color space                      : YUV
Chroma subsampling               : 4:2:0
Bit depth                        : 8 bits
Scan type                        : Progressive
Bits/(Pixel*Frame)               : 0.188
Stream size                      : 304 MiB (87%)
Writing library                  : XviD 61

Audio
ID                               : 1
Format                           : MPEG Audio
Format version                   : Version 1
Format profile                   : Layer 3
Mode                             : Joint stereo
Mode extension                   : MS Stereo
Codec ID                         : 55
Codec ID/Hint                    : MP3
Duration                         : 51mn 18s
Bit rate mode                    : Variable
Bit rate                         : 113 Kbps
Minimum bit rate                 : 32.0 Kbps
Channel(s)                       : 2 channels
Sampling rate                    : 48.0 KHz
Stream size                      : 41.5 MiB (12%)
Alignment                        : Aligned on interleaves
Interleave, duration             : 24 ms (0.58 video frame)
Interleave, preload duration     : 163 ms
Writing library                  : LAME3.95 
Encoding settings                : -m j -V 4 -q 2 -lowpass 18 --vbr-old -b 32